<svg fill="#0A0A0A" version="1.0" xmlns="http://www.w3.org/2000/svg"
 width="180.000000pt" height="180.000000pt" viewBox="0 0 180.000000 180.000000"
 preserveAspectRatio="xMidYMid meet">
<metadata>
Created by potrace 1.14, written by Peter Selinger 2001-2017
</metadata>
<g transform="translate(0.000000,180.000000) scale(0.100000,-0.100000)"
fill="#000000" stroke="none">
<path d="M797 1778 c-292 -39 -528 -200 -674 -458 -18 -30 -45 -96 -61 -145
-84 -253 -48 -540 96 -758 l26 -39 74 78 c41 44 108 114 150 157 l75 78 0 337
-1 338 292 -2 c178 -1 304 -6 325 -13 34 -10 35 -10 120 73 47 46 110 107 139
135 30 28 52 57 49 65 -7 17 -145 89 -222 115 -116 39 -274 55 -388 39z"/>
<path d="M1475 1284 c-71 -73 -131 -135 -132 -137 -2 -2 9 -32 24 -68 23 -55
26 -78 26 -169 0 -158 -38 -253 -138 -353 -51 -50 -132 -94 -187 -102 -18 -3
-122 -5 -230 -5 l-197 0 -133 -130 -133 -131 30 -24 c69 -55 224 -118 344
-140 71 -12 270 -14 301 -2 8 3 32 8 52 11 72 11 271 99 314 140 7 6 31 27 55
46 69 56 117 110 170 189 45 69 104 195 115 245 28 127 33 172 29 271 -2 61
-6 121 -9 135 -4 14 -9 39 -12 55 -14 78 -128 307 -151 304 -5 0 -66 -61 -138
-135z"/>
<path d="M742 907 l3 -202 130 2 c72 1 136 3 143 4 31 5 99 79 111 121 30 97
-3 204 -76 249 -35 22 -50 24 -176 26 l-137 2 2 -202z"/>
</g>
</svg>
